
<svg xmlns="http://www.w3.org/2000/svg" version="1.1" xmlns:xlink="http://www.w3.org/1999/xlink" preserveAspectRatio="none" x="0px" y="0px" width="550px" height="400px" viewBox="0 0 550 400">
<defs>

<g id="Layer10_0_FILL">
<path fill="#1E1E1E" stroke="none" d="
M -16.45 68.5
Q -16.45 68.4 -16.5 68.25 -16.65 68.45 -16.85 68.65 -16.65 68.55 -16.45 68.5
M 19.35 59.95
Q 18.85 60.3 18.4 61.05 17.6 63.8 16.3 65.95
L 18.75 66.6
Q 19.45 63.35 19.35 59.95 Z"/>

<path fill="#FFFFFF" stroke="none" d="
M 18.4 61.05
Q 18.85 60.3 19.35 59.95 14.3 50.7 4.2 53 4.55 54.7 4.8 56.35 5.25 59 4.8 61.4
L 3.55 61.5 3.05 59.8
Q 3.4 59.2 3.2 58.5 2.9 57.5 1.9 57.75 1.55 57.85 1.3 58.25 -0.05 60.55 -0.65 63.35
L -3.05 62.35
Q -7.6 61.35 -11.15 64.2 -14 66.55 -12.4 69.85 -12.15 70.3 -11.75 70.55 -9.7 71.95 -7.35 72.7 -6.5 72.9 -5.55 73.1 -3.75 73.45 -2 73.7 4.6 74.3 10.85 71.65 14.8 69.95 19.05 70.9 18.75 70.3 18.35 69.85 17.85 69.3 17.2 68.85 14.35 67.55 12.15 68.3 9.95 69.05 9.3 68.95 9.25 67.55 10.4 67 13.2 65.65 16.3 65.95 17.6 63.8 18.4 61.05
M 15.5 74.75
Q 12.95 75.85 11.55 76.5 5.75 78.95 0.1 77.75 -3.6 77 -10.6 74.2 -11.6 73.85 -12.35 73.15 -13.15 72.6 -13.85 71.8 -14.6 70.8 -15.1 69.65
L -15.85 69.45
Q -18.25 70.2 -19.5 72.4 -20.35 73.95 -20.1 75.7 -19.75 78.5 -17.4 80.2 -10.55 85.05 -2.3 86.75 8.3 88.95 19.05 88.95 19.95 88.95 20.85 88.85 22.85 88.7 24.65 88 26.5 87.3 28 85.95 30.7 83.4 29.2 80.05 28.95 79.4 28.45 79.1 23.8 75.35 17.95 74.25 16.85 74.3 15.5 74.75 Z"/>

<path fill="#000000" stroke="none" d="
M 24.15 74
Q 23.75 73.75 23.25 73.5
L 22.1 72.95
Q 22.05 72.9 22 72.85 21.95 72.5 21.8 72.2 22.05 70.1 20.85 68.5 20.3 67.75 19.4 67.15 19.1 66.9 18.75 66.6
L 16.3 65.95
Q 13.2 65.65 10.4 67 9.25 67.55 9.3 68.95 9.95 69.05 12.15 68.3 14.35 67.55 17.2 68.85 17.85 69.3 18.35 69.85 18.75 70.3 19.05 70.9 14.8 69.95 10.85 71.65 4.6 74.3 -2 73.7 -3.75 73.45 -5.55 73.1 -6.5 72.9 -7.35 72.7 -9.7 71.95 -11.75 70.55 -12.15 70.3 -12.4 69.85 -14 66.55 -11.15 64.2 -7.6 61.35 -3.05 62.35
L -0.65 63.35
Q -0.05 60.55 1.3 58.25 1.55 57.85 1.9 57.75 2.9 57.5 3.2 58.5 3.4 59.2 3.05 59.8
L 3.55 61.5 4.8 61.4
Q 5.25 59 4.8 56.35 4.55 54.7 4.2 53 3.65 49.5 2.8 49.35 1.65 49.1 1.4 50.15 1.75 52.3 2 54 0.95 54.05 -0.4 56.05 -1.65 57.9 -1.8 58.7 -1.95 59.35 -2.05 59.9 -2.2 60.05 -2.35 60.1 -8.15 58.9 -13.05 62.25 -14.15 63 -15.2 64 -17.1 65.8 -16.5 68.25 -16.45 68.4 -16.45 68.5 -16.65 68.55 -16.85 68.65 -17.4 68.9 -17.9 69.2 -21.85 71.6 -21.55 76.35 -21.5 77.5 -20.9 78.55 -19.3 82.05 -15.95 84.15 -8.5 89 0.45 90.7
L 0.65 90.95
Q 3.7 91.45 6.9 91.85 11.7 92.55 16.6 92.25 19.3 92.05 21.9 91.7 23.6 91.5 25.2 91 30.45 89.6 33 85.05 34.2 82.9 33 80.9 29.85 75.8 24.15 74
M 11.55 76.5
Q 12.95 75.85 15.5 74.75 16.85 74.3 17.95 74.25 23.8 75.35 28.45 79.1 28.95 79.4 29.2 80.05 30.7 83.4 28 85.95 26.5 87.3 24.65 88 22.85 88.7 20.85 88.85 19.95 88.95 19.05 88.95 8.3 88.95 -2.3 86.75 -10.55 85.05 -17.4 80.2 -19.75 78.5 -20.1 75.7 -20.35 73.95 -19.5 72.4 -18.25 70.2 -15.85 69.45
L -15.1 69.65
Q -14.6 70.8 -13.85 71.8 -13.15 72.6 -12.35 73.15 -11.6 73.85 -10.6 74.2 -3.6 77 0.1 77.75 5.75 78.95 11.55 76.5 Z"/>
</g>

<g id="Layer9_0_FILL">
<path fill="#B8B872" stroke="none" d="
M 45.5 25.8
Q 45.5 25.85 45.55 25.9
L 45.9 25
Q 45.4 25.3 45.5 25.8 Z"/>

<path fill="#1E1E1E" stroke="none" d="
M 47.75 20.35
L 47.65 21.3
Q 55.9 21.25 56.8 24.25 57.15 25 56.55 25.55 51.9 29.55 46.2 24.9 46.05 24.95 45.9 25
L 45.55 25.9
Q 45.55 26 48.8 27.5 52.05 29 51.5 31.7 48.5 37 44.6 32.05 42.95 30 40.9 28.55
L 39.95 29.65
Q 37.55 29.25 37.35 26.9
L 38.25 25.85
Q 40 23.95 38.1 22.65 38.05 22.55 37.9 22.5
L 37.1 22.8 37.05 22.8
Q 31.85 29.55 39.75 32.8 40.05 33 40.45 33.05 43.25 41.2 51.6 36.15 53.3 35.15 53.95 33.3 54.35 32.1 54.7 30.95 60.4 28.55 59.3 22.35 62.35 18.25 56.7 15.35 50.3 11.95 43.7 15.2
L 43.55 15.2
Q 43.55 15.3 43.6 15.5
L 46.4 15.8 46.55 16.05
Q 47.15 16 47.75 16 52.8 14.7 57.15 17.1
L 57.7 17.9
Q 58.05 20.15 55.75 20.8 53.45 21.45 48.3 20
L 47.75 20.35 Z"/>
</g>

<g id="Layer8_0_FILL">
<path fill="#FFFFFF" stroke="none" d="
M 43.6 31.65
Q 47.65 30.45 49.4 26.75 52.9 18.75 47.35 14.15 46.6 13.55 45.65 13.75 39.05 15.25 33.65 10.8 30.7 8.3 26.55 8.65 22.1 8.8 18.45 11.05
L 17.95 10.75 17.9 9.9
Q 17.75 10.05 17.75 10.25 18 15.45 21.3 19.6 21.5 18.6 23.05 18.3 26.4 20.05 29.2 23.75 32.2 27.75 37.05 27.25 37.8 33.5 43.6 31.65 Z"/>

<path fill="#1E1E1E" stroke="none" d="
M 45.8 33.35
Q 55.85 27.1 52.85 15.35 51.45 9.8 45.65 10.9 41.5 11.75 38.25 9.95 27.9 4.25 17.9 9.9
L 17.95 10.75 18.45 11.05
Q 22.1 8.8 26.55 8.65 30.7 8.3 33.65 10.8 39.05 15.25 45.65 13.75 46.6 13.55 47.35 14.15 52.9 18.75 49.4 26.75 47.65 30.45 43.6 31.65 37.8 33.5 37.05 27.25 32.2 27.75 29.2 23.75 26.4 20.05 23.05 18.3 21.5 18.6 21.3 19.6
L 22 21.6
Q 21.5 21.65 21.15 22 18.95 23.65 21.6 24.6 23.45 25.2 25.4 24.8 27.25 27.5 30.05 29.15 32.15 30.3 34.55 30.65 38.05 38.1 45.8 33.35 Z"/>
</g>

<g id="Layer7_0_FILL">
<path fill="#1E1E1E" stroke="none" d="
M 30.45 24.7
Q 31.65 23.8 31.5 22.25 31.35 20.55 29.9 19.55 36 12.7 32.15 4.5 32.75 -4.05 21 -4.4 9.2 -4.7 10.65 4.9 -5.8 17.85 -7.85 38 -8.75 46.5 -3.75 52.9 2.5 60.95 12.6 60.95 20.7 60.95 27.4 56.35 34 51.8 34.7 43.7 43.1 33.8 32.65 26.05 31.65 25.2 30.45 24.7
M 15.5 -2
Q 19.45 -3.25 23.55 -2.7
L 23.55 -3.45
Q 23.15 -3.6 22.75 -3.7 23.2 -3.7 23.55 -3.6 26.35 -3.35 28.05 -2.55 30 -1.4 30.5 0.65 30.65 1.1 30.7 1.55 30 5.8 26.25 5.45 26.55 6.25 27.35 6.45 28.05 6.65 28.7 6.5 29 6.35 29.35 6.3 32.85 15.4 24.75 19.75 26.2 21.9 28.7 22.3 23.8 24.45 27 26.55 28.4 27.45 29.85 28.55 37.75 34.4 30.85 40.25 28.3 42.35 25.2 43.75 10.9 50.5 -2.6 42.95 -8.55 33.8 -1.75 24.5 1.15 20.55 3.45 16.1 6.45 10.45 11.25 6.15
L 14.45 7.85
Q 11 4.65 12.15 1.6 13.3 -1.4 15.5 -2
M 31.05 46.8
Q 32 47.2 31.1 48.4 24.2 57.35 12.85 58.3 4.5 58.8 -1.95 53.7
L -2.35 53.3 -2.35 53.25
Q -6.45 48.55 -1.8 47.9 0.8 47.6 3.6 48.05 12.8 49.55 22.15 48.2 26.75 44.8 31.05 46.8 Z"/>

<path fill="#222222" stroke="none" d="
M -1.95 53.7
L -1.9 53.35
Q -2.1259765625 53.3048828125 -2.3 53.3
L -2.35 53.3 -1.95 53.7 Z"/>

<path fill="#FFFFFF" stroke="none" d="
M 31.1 48.4
Q 32 47.2 31.05 46.8 26.75 44.8 22.15 48.2 12.8 49.55 3.6 48.05 0.8 47.6 -1.8 47.9 -6.45 48.55 -2.35 53.25
L -2.35 53.3 -2.3 53.3
Q -2.1259765625 53.3048828125 -1.9 53.35
L -1.95 53.7
Q 4.5 58.8 12.85 58.3 24.2 57.35 31.1 48.4
M 23.55 -2.7
Q 19.45 -3.25 15.5 -2 13.3 -1.4 12.15 1.6 11 4.65 14.45 7.85
L 11.25 6.15
Q 6.45 10.45 3.45 16.1 1.15 20.55 -1.75 24.5 -8.55 33.8 -2.6 42.95 10.9 50.5 25.2 43.75 28.3 42.35 30.85 40.25 37.75 34.4 29.85 28.55 28.4 27.45 27 26.55 23.8 24.45 28.7 22.3 26.2 21.9 24.75 19.75 32.85 15.4 29.35 6.3 29 6.35 28.7 6.5 28.05 6.65 27.35 6.45 26.55 6.25 26.25 5.45 30 5.8 30.7 1.55 30.65 1.1 30.5 0.65 30 -1.4 28.05 -2.55 26.35 -3.35 23.55 -3.6
L 23.55 -3.45 23.55 -2.7 Z"/>
</g>

<g id="Layer6_0_FILL">
<path fill="#1E1E1E" stroke="none" d="
M 3.4 78.1
Q 3.55 77.95 3.75 77.75 3.65 77.65 3.55 77.55 3.45 77.8 3.4 78.1
M 31.3 55.2
Q 31.85 58.05 31.7 60.55
L 34.2 60
Q 33.35 56.75 31.65 53.8 31.35 54.35 31.3 55.2 Z"/>

<path fill="#000000" stroke="none" d="
M 36.9 60.7
Q 36.1 60.3 35.05 60.15 34.55 60.05 34.2 60
L 31.7 60.55
Q 28.75 61.65 26.95 64.2 26.2 65.2 26.8 66.35 27.45 66.2 29.05 64.5 30.65 62.85 33.8 62.65 34.5 62.75 35.3 63.05 35.85 63.25 36.45 63.65 32.2 64.75 29.45 68.05 25.1 73.3 18.9 75.75 17.3 76.35 15.55 76.85 14.6 77.1 13.7 77.3 11.3 77.7 8.8 77.45 8.3 77.4 7.95 77.1 5 74.9 6.45 71.5 8.35 67.35 12.8 66.15
L 15.45 65.95
Q 14.6 63.25 14.8 60.5 14.8 60.1 15.15 59.75 15.9 59.1 16.6 59.9 17.1 60.4 17.1 61.1
L 18.3 62.35 19.35 61.7
Q 18.65 59.4 17.1 57.25 16.1 55.9 15 54.5 12.85 51.65 12.05 51.95 10.9 52.2 11.2 53.25 12.45 55 13.5 56.45 12.55 56.95 12.3 59.35 12.05 61.55 12.25 62.35 12.45 63 12.6 63.5 12.55 63.7 12.4 63.85 6.7 65.4 3.85 70.6 3.25 71.8 2.8 73.2 1.9 75.65 3.55 77.55 3.65 77.65 3.75 77.75 3.55 77.95 3.4 78.1 3.05 78.55 2.75 79.05 0.35 82.95 2.75 87.1 3.35 88.05 4.35 88.75 7.35 91.1 11.3 91.45 20.2 92.3 28.9 89.75
L 29.2 89.9
Q 32.15 88.9 35.15 87.85 39.75 86.25 43.95 83.75 46.3 82.35 48.4 80.9 49.85 79.9 51.05 78.75 55.1 75.05 55.3 69.9 55.35 67.4 53.35 66.15 48.2 63.1 42.35 64.05 41.8 64.05 41.35 64.05
L 40.05 64.1
Q 39.95 64.05 39.9 64.1 39.75 63.75 39.45 63.55 38.7 61.6 36.9 60.7
M 32.25 72.1
Q 33.2 70.85 35 68.75 35.95 67.7 36.95 67.15 42.7 65.4 48.5 66.65 49.05 66.7 49.6 67.15 52.45 69.45 51.25 72.95 50.5 74.8 49.2 76.3 47.9 77.75 46.2 78.75 45.45 79.3 44.65 79.65 35.05 84.65 24.65 87.55 16.5 89.8 8.25 88.6 5.35 88.15 3.75 85.85 2.7 84.4 2.8 82.6 2.85 80.1 4.7 78.3
L 5.45 78.15
Q 6.45 78.95 7.55 79.5 8.5 79.95 9.55 80.05 10.5 80.25 11.5 80.15 19.05 79.45 22.65 78.45 28.25 76.9 32.25 72.1 Z"/>

<path fill="#FFFFFF" stroke="none" d="
M 35 68.75
Q 33.2 70.85 32.25 72.1 28.25 76.9 22.65 78.45 19.05 79.45 11.5 80.15 10.5 80.25 9.55 80.05 8.5 79.95 7.55 79.5 6.45 78.95 5.45 78.15
L 4.7 78.3
Q 2.85 80.1 2.8 82.6 2.7 84.4 3.75 85.85 5.35 88.15 8.25 88.6 16.5 89.8 24.65 87.55 35.05 84.65 44.65 79.65 45.45 79.3 46.2 78.75 47.9 77.75 49.2 76.3 50.5 74.8 51.25 72.95 52.45 69.45 49.6 67.15 49.05 66.7 48.5 66.65 42.7 65.4 36.95 67.15 35.95 67.7 35 68.75
M 31.7 60.55
Q 31.85 58.05 31.3 55.2 31.35 54.35 31.65 53.8 22.9 47.9 15 54.5 16.1 55.9 17.1 57.25 18.65 59.4 19.35 61.7
L 18.3 62.35 17.1 61.1
Q 17.1 60.4 16.6 59.9 15.9 59.1 15.15 59.75 14.8 60.1 14.8 60.5 14.6 63.25 15.45 65.95
L 12.8 66.15
Q 8.35 67.35 6.45 71.5 5 74.9 7.95 77.1 8.3 77.4 8.8 77.45 11.3 77.7 13.7 77.3 14.6 77.1 15.55 76.85 17.3 76.35 18.9 75.75 25.1 73.3 29.45 68.05 32.2 64.75 36.45 63.65 35.85 63.25 35.3 63.05 34.5 62.75 33.8 62.65 30.65 62.85 29.05 64.5 27.45 66.2 26.8 66.35 26.2 65.2 26.95 64.2 28.75 61.65 31.7 60.55 Z"/>
</g>

<g id="Layer5_0_FILL">
<path fill="#B8B872" stroke="none" d="
M -11.3 30.3
L -10.7 30.9 -10.7 30.9
Q -10.7 30.4 -11.3 30.3 Z"/>

<path fill="#CCCC99" stroke="none" d="
M -3.7 25.4
L -3.65 25.4
Q -3.65 25.25 -3.7 25.1
L -3.7 25.4 Z"/>

<path fill="#FFFFFF" stroke="none" d="
M -14.75 22.05
Q -15.35 22.2 -15.95 22.3 -21.1 22.7 -24.45 26.4
L -24.8 27.3
Q -24.35 29.55 -21.95 29.4 -19.55 29.35 -15.2 26.3
L -14.55 26.45 -14.15 27.3
Q -22 29.95 -21.9 33.05 -21.95 33.9 -21.25 34.15 -15.6 36.55 -11.6 30.3 -11.45 30.25 -11.3 30.3 -10.7 30.4 -10.7 30.9
L -10.7 30.9
Q -10.6818359375 30.9548828125 -10.65 30.95
L -10.65 31
Q -10.65 31.1 -13.3 33.6 -15.85 36 -14.5 38.4 -10 42.5 -7.8 36.55 -6.95 34.1 -5.4 32.05
L -4.15 32.75
Q -2.05 31.65 -2.55 29.4
L -3.75 28.65
Q -6 27.45 -4.7 25.55 -4.65 25.45 -4.5 25.4
L -3.7 25.4 -3.7 25.1
Q -6.95 19.9 -12.1 20.5
L -14.7 21.7 -14.75 22.05 Z"/>

<path fill="#1E1E1E" stroke="none" d="
M -15.95 22.3
Q -15.35 22.2 -14.75 22.05
L -14.7 21.7 -12.1 20.5
Q -12.15 20.3 -12.15 20.2
L -12.3 20.3
Q -19.6 19.25 -24.6 24.55 -29.05 29.15 -24.8 32.05 -23.9 38.25 -17.8 38.75 -17.05 39.7 -16.35 40.7 -15.1 42.25 -13.2 42.65 -3.65 44.8 -3.55 36.15 -3.25 36 -2.95 35.7 3.45 30.15 -3.65 25.4
L -3.7 25.4 -4.5 25.4
Q -4.65 25.45 -4.7 25.55 -6 27.45 -3.75 28.65
L -2.55 29.4
Q -2.05 31.65 -4.15 32.75
L -5.4 32.05
Q -6.95 34.1 -7.8 36.55 -10 42.5 -14.5 38.4 -15.85 36 -13.3 33.6 -10.65 31.1 -10.65 31
L -10.65 30.95
Q -10.6818359375 30.9548828125 -10.7 30.9
L -11.3 30.3
Q -11.45 30.25 -11.6 30.3 -15.6 36.55 -21.25 34.15 -21.95 33.9 -21.9 33.05 -22 29.95 -14.15 27.3
L -14.55 26.45 -15.2 26.3
Q -19.55 29.35 -21.95 29.4 -24.35 29.55 -24.8 27.3
L -24.45 26.4
Q -21.1 22.7 -15.95 22.3 Z"/>
</g>

<g id="Layer4_0_FILL">
<path fill="#1E1E1E" stroke="none" d="
M 11.35 7.85
L 11.75 7.45 11.5 6.6
Q 0.2 4.45 -7.75 13.15 -10.3 15.85 -14.45 16.4 -20.35 17.2 -19.95 22.85 -19.05 35 -7.5 37.75 1.35 39.8 2.25 31.65 4.45 30.5 6.05 28.75 8.25 26.3 9.1 23.1 11.05 22.9 12.6 21.7 14.85 19.95 12.25 19.1 11.8 18.95 11.3 19
L 11.3 16.9
Q 10.8 16 9.25 16.2 6.7 18.95 5.2 23.35 3.6 28.05 -1.15 29.15 0.1 35.3 -6 35.45 -10.15 35.55 -13 32.55 -18.9 26.15 -15.05 19.95 -14.6 19.15 -13.65 19.05 -6.85 18.45 -3.15 12.5 -1.1 9.2 2.85 8.15 7.2 6.9 11.35 7.85 Z"/>

<path fill="#FFFFFF" stroke="none" d="
M 11.75 6.95
Q 11.65 6.75 11.5 6.6
L 11.75 7.45 11.35 7.85
Q 7.2 6.9 2.85 8.15 -1.1 9.2 -3.15 12.5 -6.85 18.45 -13.65 19.05 -14.6 19.15 -15.05 19.95 -18.9 26.15 -13 32.55 -10.15 35.55 -6 35.45 0.1 35.3 -1.15 29.15 3.6 28.05 5.2 23.35 6.7 18.95 9.25 16.2 10.8 16 11.3 16.9 13.2 11.95 11.75 6.95 Z"/>
</g>

<g id="Layer3_0_FILL">
<path fill="#1E1E1E" stroke="none" d="
M 23.9 -51.85
Q 22.9 -51.3 22.95 -50 23.05 -48.75 23.35 -47.5 13.5 -49.45 11.15 -42 10.95 -41.3 11.35 -40.5 4.7 -38.55 7.8 -32.5 8.15 -31.9 8.7 -31.4
L 7.8 -25.25
Q -6.7 -27.6 -14.75 -16.55 -15.65 -15.25 -15 -13.7 -14.45 -12.35 -13.35 -11.25 -6.75 -21.6 5.25 -20.6 -5.9 -18.75 -3.05 -7.85 -2.6 -5.85 -0.65 -4.65 5.25 -1.05 11.25 -5.25 16 5.35 26.8 4.05 27.9 4.05 28.7 3.2 29.4 2.4 29.95 1.55 49.35 2.6 59.25 -13.15 60.85 -15.65 60.4 -18.7 59.95 -21.75 58.4 -24.55 66.15 -31.95 58.1 -39.6 54 -43.5 48.35 -41.9 42.85 -48.4 34.25 -47.25 32.3 -56.95 23.9 -51.85
M 24.7 -49.65
Q 26.7 -52.05 29.55 -50.95 31.95 -49.6 31.8 -46.35 31.65 -43.15 32.75 -43.5 40.05 -45.5 45.55 -40.5 43.3 -39.2 42.45 -36.95 37.85 -38.1 33 -37.7 19.25 -36.4 15.1 -24.2
L 9.75 -25.05
Q 10.2 -26.1 10.7 -27.05 14.1 -33.3 8.85 -35.6 9.65 -39.85 17.7 -38.95 17.8 -39.3 17.7 -39.4 16.25 -41.6 13.05 -42.4 16.7 -47.45 27.85 -43.1 28.1 -47.85 24.7 -49.65
M 10.95 -17.25
L 10.15 -20.15 15.05 -19.9
Q 22.25 -7.55 36.2 -12.5 43.3 -15.1 48.35 -20.65
L 50.35 -20.75
Q 52.4 -21.05 54.35 -21.95 54.9 -22.2 55.5 -22.55 60.6 -15 52.8 -10.2 41.7 -3.3 28.65 -2.5 22 -2.25 15.7 -4.3
L 13.5 -7.3 13.3 -9
Q 11.15 -9.6 9.25 -7.6 9 -7.3 8.6 -7.1 0.2 -3 -1.4 -12.1 -1.65 -13.2 -0.75 -14.15 4.1 -19.55 10.95 -17.25
M 20 -18
Q 19.9 -18.05 19.85 -18.1
L 19.9 -18.1
Q 13.25 -26.6 23.35 -31.45 32.05 -35.7 41.25 -34.15 44.1 -33.2 44.4 -31.35 44.2 -31.25 44 -31.15 42.3 -30.45 42.35 -28.7 42.45 -28.6 42.55 -28.7 44.25 -28.6 45.8 -29.4 45.65 -17.65 34.7 -15.5 23.7 -13.4 20 -18
M 50.15 -31.9
Q 49.9 -32.4 49.45 -32.6 49 -32.7 48.55 -32.6
L 44.3 -36.1
Q 50.85 -43.7 56.7 -39.25 61.95 -32.05 54.05 -26.9 52.25 -25.75 50.1 -25.55
L 49.75 -30 49.55 -30.5 50.15 -31.9
M 26.25 1.65
Q 25.15 1.85 24.15 2.25 20.7 3.5 18.95 0.65
L 26.25 1.65
M 12.3 -12.65
Q 12.15 -13.6 11.2 -14 4.7 -17.5 2.8 -11.95 2.8 -11.9 2.8 -11.8
L 3.25 -12 3.6 -12.25 5 -13.15 11.7 -11.05
Q 12.5 -11.7 12.3 -12.65 Z"/>

<path fill="#FFFFFF" stroke="none" d="
M 24.15 2.25
Q 25.15 1.85 26.25 1.65
L 18.95 0.65
Q 20.7 3.5 24.15 2.25
M 49.45 -32.6
Q 49.9 -32.4 50.15 -31.9
L 49.55 -30.5 49.75 -30 50.1 -25.55
Q 52.25 -25.75 54.05 -26.9 61.95 -32.05 56.7 -39.25 50.85 -43.7 44.3 -36.1
L 48.55 -32.6
Q 49 -32.7 49.45 -32.6
M 19.9 -18.1
L 19.95 -18.1 20 -18
Q 23.7 -13.4 34.7 -15.5 45.65 -17.65 45.8 -29.4 44.25 -28.6 42.55 -28.7 42.45 -28.6 42.35 -28.7 42.3 -30.45 44 -31.15 44.2 -31.25 44.4 -31.35 44.1 -33.2 41.25 -34.15 32.05 -35.7 23.35 -31.45 13.25 -26.6 19.9 -18.1
M 10.15 -20.15
L 10.95 -17.25
Q 4.1 -19.55 -0.75 -14.15 -1.65 -13.2 -1.4 -12.1 0.2 -3 8.6 -7.1 9 -7.3 9.25 -7.6 11.15 -9.6 13.3 -9
L 13.5 -7.3 15.7 -4.3
Q 22 -2.25 28.65 -2.5 41.7 -3.3 52.8 -10.2 60.6 -15 55.5 -22.55 54.9 -22.2 54.35 -21.95 52.4 -21.05 50.35 -20.75
L 48.35 -20.65
Q 43.3 -15.1 36.2 -12.5 22.25 -7.55 15.05 -19.9
L 10.15 -20.15
M 11.2 -14
Q 12.15 -13.6 12.3 -12.65 12.5 -11.7 11.7 -11.05
L 5 -13.15 3.6 -12.25 3.3 -11.9 3.25 -12 2.8 -11.8
Q 2.8 -11.9 2.8 -11.95 4.7 -17.5 11.2 -14
M 29.55 -50.95
Q 26.7 -52.05 24.7 -49.65 28.1 -47.85 27.85 -43.1 16.7 -47.45 13.05 -42.4 16.25 -41.6 17.7 -39.4 17.8 -39.3 17.7 -38.95 9.65 -39.85 8.85 -35.6 14.1 -33.3 10.7 -27.05 10.2 -26.1 9.75 -25.05
L 15.1 -24.2
Q 19.25 -36.4 33 -37.7 37.85 -38.1 42.45 -36.95 43.3 -39.2 45.55 -40.5 40.05 -45.5 32.75 -43.5 31.65 -43.15 31.8 -46.35 31.95 -49.6 29.55 -50.95 Z"/>

<path fill="#EAEAEA" stroke="none" d="
M 19.85 -18.1
Q 19.9 -18.05 20 -18
L 19.95 -18.1 19.9 -18.1 19.85 -18.1 Z"/>

<path fill="#B8B872" stroke="none" d="
M 3.3 -11.9
L 3.6 -12.25 3.25 -12 3.3 -11.9 Z"/>
</g>

<g id="Layer2_0_FILL">
<path fill="#1E1E1E" stroke="none" d="
M 34.5 -25.2
Q 35.25 -24.3 36.8 -24.55 37.5 -24.65 38.05 -25.6 38.55 -26.45 38.45 -26.9 38.05 -28.9 36.45 -28.55 33.65 -28.15 33.95 -26.15 33.95 -26.1 34.5 -25.2 Z"/>
</g>

<g id="Layer1_0_FILL">
<path fill="#1E1E1E" stroke="none" d="
M 49.9 -32.5
Q 50.65 -31.6 52.2 -31.85 52.9 -31.95 53.45 -32.9 53.95 -33.75 53.85 -34.2 53.45 -36.2 51.85 -35.85 49.05 -35.45 49.35 -33.45 49.35 -33.4 49.9 -32.5 Z"/>
</g>
</defs>

<g transform="matrix( 1, 0, 0, 1, 258.35,177.8) ">
<g transform="matrix( 1, 0, 0, 1, 0,0) ">
<use xlink:href="#Layer10_0_FILL"/>
</g>

<g transform="matrix( 1, 0, 0, 1, 0,0) ">
<use xlink:href="#Layer9_0_FILL"/>
</g>

<g transform="matrix( 1, 0, 0, 1, 0,0) ">
<use xlink:href="#Layer8_0_FILL"/>
</g>

<g transform="matrix( 1, 0, 0, 1, 0,0) ">
<use xlink:href="#Layer7_0_FILL"/>
</g>

<g transform="matrix( 1, 0, 0, 1, 0,0) ">
<use xlink:href="#Layer6_0_FILL"/>
</g>

<g transform="matrix( 1, 0, 0, 1, 0,0) ">
<use xlink:href="#Layer5_0_FILL"/>
</g>

<g transform="matrix( 1, 0, 0, 1, 0,0) ">
<use xlink:href="#Layer4_0_FILL"/>
</g>

<g transform="matrix( 1, 0, 0, 1, 0,0) ">
<use xlink:href="#Layer3_0_FILL"/>
</g>

<g transform="matrix( 1, 0, 0, 1, 0,0) ">
<use xlink:href="#Layer2_0_FILL"/>
</g>

<g transform="matrix( 1, 0, 0, 1, 0,0) ">
<use xlink:href="#Layer1_0_FILL"/>
</g>
</g>
</svg>
