<svg id="Capa_1" data-name="Capa 1" xmlns="http://www.w3.org/2000/svg" viewBox="0 0 89.08 145.95">
    <defs>
        <style>.cls-1{fill:#1e1e1e;}.blanco{fill:#fff;}.cls-2{fill:#b8b872;}.cls-3{fill:#222;}.cls-4{fill:#cc9;}.cls-5{fill:#eaeaea;}</style>
    </defs>
    <title>avatar_2</title>
    <g>
        <link rel="stylesheet" type="text/css"
              xmlns="http://www.w3.org/1999/xhtml"
        href="../css/svg.css"/>
        <g id="Layer10_0_FILL" data-name="Layer10 0 FILL">
            <path class="cls-1" d="M241.9,246.3a.82.82,0,0,0,0-.25,3.76,3.76,0,0,1-.35.4,2,2,0,0,1,.4-.15m35.8-8.55a3.54,3.54,0,0,0-1,1.1,20.48,20.48,0,0,1-2.1,4.9l2.45.65A27.61,27.61,0,0,0,277.7,237.75Z" transform="translate(-231.47 -124.19)" />
            <path class="blanco" d="M276.75,238.85a3.54,3.54,0,0,1,1-1.1q-5.05-9.25-15.15-7,.35,1.7.6,3.35a14.27,14.27,0,0,1,0,5.05l-1.25.1-.5-1.7a1.6,1.6,0,0,0,.15-1.3,1,1,0,0,0-1.3-.75,1.07,1.07,0,0,0-.6.5,17.06,17.06,0,0,0-1.95,5.1l-2.4-1a9.18,9.18,0,0,0-8.1,1.85,4.25,4.25,0,0,0-1.25,5.65,1.88,1.88,0,0,0,.65.7,16.84,16.84,0,0,0,4.4,2.15l1.8.4q1.8.35,3.55.6a26.34,26.34,0,0,0,12.85-2,13,13,0,0,1,8.2-.75,4.8,4.8,0,0,0-.7-1.05,5.6,5.6,0,0,0-6.2-1.55,8.15,8.15,0,0,1-2.85.65,1.89,1.89,0,0,1,1.1-1.95,10.92,10.92,0,0,1,5.9-1.05,20.48,20.48,0,0,0,2.1-4.9m-2.9,13.7q-2.55,1.1-3.95,1.75a18.81,18.81,0,0,1-11.45,1.25,68.25,68.25,0,0,1-10.7-3.55,4.91,4.91,0,0,1-1.75-1,8.08,8.08,0,0,1-1.5-1.35,10.64,10.64,0,0,1-1.25-2.15l-.75-.2a6.18,6.18,0,0,0-3.65,3,5.17,5.17,0,0,0-.6,3.3A6.32,6.32,0,0,0,241,258a39.73,39.73,0,0,0,15.1,6.55,104.79,104.79,0,0,0,21.35,2.2,16.29,16.29,0,0,0,1.8-.1,13.13,13.13,0,0,0,3.8-.85,10.55,10.55,0,0,0,3.35-2.05,4.77,4.77,0,0,0,1.2-5.9,1.82,1.82,0,0,0-.75-1,23.36,23.36,0,0,0-10.5-4.85A9.15,9.15,0,0,0,273.85,252.55Z" transform="translate(-231.47 -124.19)" />
            <path d="M282.5,251.8q-.4-.25-.9-.5l-1.15-.55-.1-.1a2.11,2.11,0,0,0-.2-.65,5,5,0,0,0-.95-3.7,5.67,5.67,0,0,0-1.45-1.35l-.65-.55-2.45-.65a10.92,10.92,0,0,0-5.9,1.05,1.89,1.89,0,0,0-1.1,1.95,8.15,8.15,0,0,0,2.85-.65,5.6,5.6,0,0,1,6.2,1.55,4.8,4.8,0,0,1,.7,1.05,13,13,0,0,0-8.2.75,26.34,26.34,0,0,1-12.85,2q-1.75-.25-3.55-.6l-1.8-.4a16.84,16.84,0,0,1-4.4-2.15,1.88,1.88,0,0,1-.65-.7A4.25,4.25,0,0,1,247.2,242a9.18,9.18,0,0,1,8.1-1.85l2.4,1a17.06,17.06,0,0,1,1.95-5.1,1.07,1.07,0,0,1,.6-.5,1,1,0,0,1,1.3.75,1.6,1.6,0,0,1-.15,1.3l.5,1.7,1.25-.1a14.27,14.27,0,0,0,0-5.05q-.25-1.65-.6-3.35-.55-3.5-1.4-3.65-1.15-.25-1.4.8.35,2.15.6,3.85-1,.05-2.4,2a8.84,8.84,0,0,0-1.4,2.65q-.15.65-.25,1.2a.79.79,0,0,1-.3.2,13.42,13.42,0,0,0-10.7,2.15,17.06,17.06,0,0,0-2.15,1.75,4.15,4.15,0,0,0-1.3,4.25.82.82,0,0,1,0,.25,2,2,0,0,0-.4.15,10.42,10.42,0,0,0-1,.55,7.24,7.24,0,0,0-3.65,7.15,4.8,4.8,0,0,0,.65,2.2,12.76,12.76,0,0,0,4.95,5.6,45.22,45.22,0,0,0,16.4,6.55l.2.25q3.05.5,6.25.9a47.1,47.1,0,0,0,9.7.4q2.7-.2,5.3-.55a18.15,18.15,0,0,0,3.3-.7,12.13,12.13,0,0,0,7.8-5.95,3.89,3.89,0,0,0,0-4.15,15.62,15.62,0,0,0-8.85-6.9m-12.6,2.5q1.4-.65,3.95-1.75a9.15,9.15,0,0,1,2.45-.5,23.36,23.36,0,0,1,10.5,4.85,1.82,1.82,0,0,1,.75,1,4.77,4.77,0,0,1-1.2,5.9A10.55,10.55,0,0,1,283,265.8a13.13,13.13,0,0,1-3.8.85,16.29,16.29,0,0,1-1.8.1,104.79,104.79,0,0,1-21.35-2.2A39.73,39.73,0,0,1,241,258a6.32,6.32,0,0,1-2.7-4.5,5.17,5.17,0,0,1,.6-3.3,6.18,6.18,0,0,1,3.65-3l.75.2a10.64,10.64,0,0,0,1.25,2.15A8.08,8.08,0,0,0,246,251a4.91,4.91,0,0,0,1.75,1,68.25,68.25,0,0,0,10.7,3.55A18.81,18.81,0,0,0,269.9,254.3Z" transform="translate(-231.47 -124.19)" />
        </g>
        <g id="Layer9_0_FILL" data-name="Layer9 0 FILL">
            <path class="cls-2" d="M303.85,203.6a.14.14,0,0,0,0,.1l.35-.9A.72.72,0,0,0,303.85,203.6Z" transform="translate(-231.47 -124.19)" />
            <path class="cls-1" d="M306.1,198.15l-.1.95q8.25,0,9.15,3a1,1,0,0,1-.25,1.3q-4.65,4-10.35-.65l-.3.1-.35.9a27.9,27.9,0,0,0,3.25,1.6q3.25,1.5,2.7,4.2-3,5.3-6.9.35a18.33,18.33,0,0,0-3.7-3.5l-1,1.1a2.8,2.8,0,0,1-2.6-2.75l.9-1q1.75-1.9-.15-3.2a.32.32,0,0,0-.2-.15l-.8.3h0q-5.2,6.75,2.7,10a1.6,1.6,0,0,0,.7.25Q301.6,219,310,214a5.22,5.22,0,0,0,2.35-2.85q.4-1.2.75-2.35,5.7-2.4,4.6-8.6,3-4.1-2.6-7a13.54,13.54,0,0,0-13-.15h-.15a1.37,1.37,0,0,0,0,.3l2.8.3.15.25q.6,0,1.2,0a12.39,12.39,0,0,1,9.4,1.1l.55.8a2.36,2.36,0,0,1-2,2.9q-2.3.65-7.45-.8Z" transform="translate(-231.47 -124.19)" />
        </g>
        <g id="Layer8_0_FILL" data-name="Layer8 0 FILL">
            <path class="blanco" d="M302,209.45a8.92,8.92,0,0,0,5.8-4.9q3.5-8-2.05-12.6a2,2,0,0,0-1.7-.4,13.35,13.35,0,0,1-12-2.95,9.33,9.33,0,0,0-7.1-2.15,16.2,16.2,0,0,0-8.1,2.4l-.5-.3-.05-.85a.48.48,0,0,0-.15.35,15.91,15.91,0,0,0,3.55,9.35q.2-1,1.75-1.3a18.68,18.68,0,0,1,6.15,5.45,8.2,8.2,0,0,0,7.85,3.5Q296.15,211.3,302,209.45Z" transform="translate(-231.47 -124.19)" />
            <path class="cls-1" d="M304.15,211.15q10.05-6.25,7-18-1.4-5.55-7.2-4.45a10.48,10.48,0,0,1-7.4-.95q-10.35-5.7-20.35-.05l.05.85.5.3a16.2,16.2,0,0,1,8.1-2.4,9.33,9.33,0,0,1,7.1,2.15,13.35,13.35,0,0,0,12,2.95,2,2,0,0,1,1.7.4q5.55,4.6,2.05,12.6a8.92,8.92,0,0,1-5.8,4.9q-5.8,1.85-6.55-4.4a8.2,8.2,0,0,1-7.85-3.5,18.68,18.68,0,0,0-6.15-5.45q-1.55.3-1.75,1.3l.7,2a1.36,1.36,0,0,0-.85.4q-2.2,1.65.45,2.6a7.34,7.34,0,0,0,3.8.2A14.5,14.5,0,0,0,288.4,207a13.28,13.28,0,0,0,4.5,1.5Q296.4,215.9,304.15,211.15Z" transform="translate(-231.47 -124.19)" />
        </g>
        <g id="Layer7_0_FILL" data-name="Layer7 0 FILL">
            <path class="cls-1" d="M288.8,202.5a2.56,2.56,0,0,0,1-2.45,3.52,3.52,0,0,0-1.6-2.7q6.1-6.85,2.25-15,.6-8.55-11.15-8.9T269,182.7q-16.45,13-18.5,33.1a20.55,20.55,0,0,0,20.45,23,25.58,25.58,0,0,0,14.8-4.6,16.35,16.35,0,0,0,7.3-12.65q8.4-9.9-2-17.65a8.32,8.32,0,0,0-2.2-1.35m-15-26.7a18.3,18.3,0,0,1,8-.7v-.75a7.37,7.37,0,0,0-.8-.25,2.92,2.92,0,0,1,.8.1,13.55,13.55,0,0,1,4.5,1.05,5,5,0,0,1,2.45,3.2,4.37,4.37,0,0,1,.2.9q-.7,4.25-4.45,3.9a1.51,1.51,0,0,0,1.1,1,2.66,2.66,0,0,0,1.35.05,2.11,2.11,0,0,1,.65-.2q3.5,9.1-4.6,13.45a5.67,5.67,0,0,0,4,2.55q-4.9,2.15-1.7,4.25,1.4.9,2.85,2,7.9,5.85,1,11.7a25.07,25.07,0,0,1-5.65,3.5q-14.3,6.75-27.8-.8-6-9.15.85-18.45a63.2,63.2,0,0,0,5.2-8.4,35.81,35.81,0,0,1,7.8-10l3.2,1.7q-3.45-3.2-2.3-6.25t3.35-3.6m15.55,48.8q1,.4.05,1.6a24.69,24.69,0,0,1-18.25,9.9,21.05,21.05,0,0,1-14.8-4.6l-.4-.4v0q-4.1-4.7.55-5.35a19.69,19.69,0,0,1,5.4.15,60.7,60.7,0,0,0,18.55.15Q285.1,222.6,289.4,224.6Z" transform="translate(-231.47 -124.19)" />
            <path class="cls-3" d="M256.4,231.5l.05-.35a2.42,2.42,0,0,0-.4,0H256Z" transform="translate(-231.47 -124.19)" />
            <path class="blanco" d="M289.45,226.2q.9-1.2-.05-1.6-4.3-2-8.9,1.4a60.7,60.7,0,0,1-18.55-.15,19.69,19.69,0,0,0-5.4-.15q-4.65.65-.55,5.35v0h.05a2.42,2.42,0,0,1,.4,0l-.05.35a21.05,21.05,0,0,0,14.8,4.6,24.69,24.69,0,0,0,18.25-9.9m-7.55-51.1a18.3,18.3,0,0,0-8,.7q-2.2.6-3.35,3.6t2.3,6.25l-3.2-1.7a35.81,35.81,0,0,0-7.8,10,63.2,63.2,0,0,1-5.2,8.4q-6.8,9.3-.85,18.45,13.5,7.55,27.8.8a25.07,25.07,0,0,0,5.65-3.5q6.9-5.85-1-11.7-1.45-1.1-2.85-2-3.2-2.1,1.7-4.25a5.67,5.67,0,0,1-4-2.55q8.1-4.35,4.6-13.45a2.11,2.11,0,0,0-.65.2,2.66,2.66,0,0,1-1.35-.05,1.51,1.51,0,0,1-1.1-1q3.75.35,4.45-3.9a4.37,4.37,0,0,0-.2-.9,5,5,0,0,0-2.45-3.2,13.55,13.55,0,0,0-4.5-1.05v.9Z" transform="translate(-231.47 -124.19)" />
        </g>
        <g id="Layer6_0_FILL" data-name="Layer6 0 FILL">
            <path class="cls-1" d="M261.75,255.9l.35-.35-.2-.2a2.65,2.65,0,0,0-.15.55m27.9-22.9a21.47,21.47,0,0,1,.4,5.35l2.5-.55a25.07,25.07,0,0,0-2.55-6.2A3.32,3.32,0,0,0,289.65,233Z" transform="translate(-231.47 -124.19)" />
            <path d="M295.25,238.5a6,6,0,0,0-1.85-.55l-.85-.15-2.5.55A9.93,9.93,0,0,0,285.3,242a1.88,1.88,0,0,0-.15,2.15,6.61,6.61,0,0,0,2.25-1.85,7,7,0,0,1,4.75-1.85,7.2,7.2,0,0,1,1.5.4,5.46,5.46,0,0,1,1.15.6,13.18,13.18,0,0,0-7,4.4,25.86,25.86,0,0,1-10.55,7.7q-1.6.6-3.35,1.1-.95.25-1.85.45a18.49,18.49,0,0,1-4.9.15,1.5,1.5,0,0,1-.85-.35,4.25,4.25,0,0,1-1.5-5.6,9.33,9.33,0,0,1,6.35-5.35l2.65-.2a14.5,14.5,0,0,1-.65-5.45,1.05,1.05,0,0,1,.35-.75.91.91,0,0,1,1.45.15,1.64,1.64,0,0,1,.5,1.2l1.2,1.25,1.05-.65a15.14,15.14,0,0,0-2.25-4.45q-1-1.35-2.1-2.75-2.15-2.85-2.95-2.55-1.15.25-.85,1.3l2.3,3.2q-1,.5-1.2,2.9a10,10,0,0,0-.05,3l.35,1.15a.74.74,0,0,1-.2.35,13.39,13.39,0,0,0-8.55,6.75,18.39,18.39,0,0,0-1,2.6,4.06,4.06,0,0,0,.75,4.35l.2.2-.35.35a9.54,9.54,0,0,0-.65,1,7.35,7.35,0,0,0,0,8,5.78,5.78,0,0,0,1.6,1.65,12.86,12.86,0,0,0,7,2.7,46.36,46.36,0,0,0,17.6-1.7l.3.15q2.95-1,6-2.05a48,48,0,0,0,8.8-4.1q2.35-1.4,4.45-2.85a21.28,21.28,0,0,0,2.65-2.15,12.27,12.27,0,0,0,4.25-8.85,4,4,0,0,0-2-3.75,16,16,0,0,0-11-2.1h-1l-1.3,0q-.1,0-.15,0a1.22,1.22,0,0,0-.45-.55,5.12,5.12,0,0,0-2.55-2.85m-4.65,11.4q1-1.25,2.75-3.35a7.64,7.64,0,0,1,2-1.6,22.65,22.65,0,0,1,11.55-.5,2,2,0,0,1,1.1.5,4.83,4.83,0,0,1,1.65,5.8,11.91,11.91,0,0,1-2,3.35,12.54,12.54,0,0,1-3,2.45,8.13,8.13,0,0,1-1.55.9,103.17,103.17,0,0,1-20,7.9,39.58,39.58,0,0,1-16.4,1,6.44,6.44,0,0,1-4.5-2.75,4.92,4.92,0,0,1-.95-3.25,6,6,0,0,1,1.9-4.3l.75-.15a11.82,11.82,0,0,0,2.1,1.35,6,6,0,0,0,2,.55,6.35,6.35,0,0,0,1.95.1,69.34,69.34,0,0,0,11.15-1.7A18.88,18.88,0,0,0,290.6,249.9Z" transform="translate(-231.47 -124.19)" />
            <path class="blanco" d="M293.35,246.55q-1.8,2.1-2.75,3.35a18.88,18.88,0,0,1-9.6,6.35,69.34,69.34,0,0,1-11.15,1.7,6.35,6.35,0,0,1-1.95-.1,6,6,0,0,1-2-.55,11.82,11.82,0,0,1-2.1-1.35l-.75.15a6,6,0,0,0-1.9,4.3,4.92,4.92,0,0,0,.95,3.25,6.44,6.44,0,0,0,4.5,2.75,39.58,39.58,0,0,0,16.4-1,103.17,103.17,0,0,0,20-7.9,8.13,8.13,0,0,0,1.55-.9,12.54,12.54,0,0,0,3-2.45,11.91,11.91,0,0,0,2-3.35A4.83,4.83,0,0,0,308,245a2,2,0,0,0-1.1-.5,22.65,22.65,0,0,0-11.55.5,7.64,7.64,0,0,0-2,1.6m-3.3-8.2a21.47,21.47,0,0,0-.4-5.35,3.32,3.32,0,0,1,.35-1.4q-8.75-5.9-16.65.7,1.1,1.4,2.1,2.75a15.14,15.14,0,0,1,2.25,4.45l-1.05.65-1.2-1.25a1.64,1.64,0,0,0-.5-1.2.91.91,0,0,0-1.45-.15,1.05,1.05,0,0,0-.35.75,14.5,14.5,0,0,0,.65,5.45l-2.65.2a9.33,9.33,0,0,0-6.35,5.35,4.25,4.25,0,0,0,1.5,5.6,1.5,1.5,0,0,0,.85.35,18.49,18.49,0,0,0,4.9-.15q.9-.2,1.85-.45,1.75-.5,3.35-1.1a25.86,25.86,0,0,0,10.55-7.7,13.18,13.18,0,0,1,7-4.4,5.46,5.46,0,0,0-1.15-.6,7.2,7.2,0,0,0-1.5-.4,7,7,0,0,0-4.75,1.85,6.61,6.61,0,0,1-2.25,1.85,1.88,1.88,0,0,1,.15-2.15A9.93,9.93,0,0,1,290.05,238.35Z" transform="translate(-231.47 -124.19)" />
        </g>
        <g id="Layer5_0_FILL" data-name="Layer5 0 FILL">
            <path class="cls-2" d="M247.05,208.1l.6.6h0Q247.65,208.2,247.05,208.1Z" transform="translate(-231.47 -124.19)" />
            <path class="cls-4" d="M254.65,203.2h0a.94.94,0,0,0,0-.3Z" transform="translate(-231.47 -124.19)" />
            <path class="blanco" d="M243.6,199.85q-.6.15-1.2.25a12.33,12.33,0,0,0-8.5,4.1l-.35.9a2.41,2.41,0,0,0,2.85,2.1q2.4,0,6.75-3.1l.65.15.4.85q-7.85,2.65-7.75,5.75a1,1,0,0,0,.65,1.1q5.65,2.4,9.65-3.85a.46.46,0,0,1,.3,0q.6.1.6.6h0s0,.05.05.05v0q0,.1-2.65,2.6t-1.2,4.8q4.5,4.1,6.7-1.85a16.24,16.24,0,0,1,2.4-4.5l1.25.7a2.78,2.78,0,0,0,1.6-3.35l-1.2-.75q-2.25-1.2-.95-3.1a.32.32,0,0,1,.2-.15h.8v-.3q-3.25-5.2-8.4-4.6l-2.6,1.2Z" transform="translate(-231.47 -124.19)" />
            <path class="cls-1" d="M242.4,200.1q.6-.1,1.2-.25l.05-.35,2.6-1.2a1.37,1.37,0,0,1,0-.3l-.15.1a13.38,13.38,0,0,0-12.3,4.25q-4.45,4.6-.2,7.5.9,6.2,7,6.7.75,1,1.45,2a5.36,5.36,0,0,0,3.15,2q9.55,2.15,9.65-6.5a2.35,2.35,0,0,0,.6-.45q6.4-5.55-.7-10.3h-.85a.32.32,0,0,0-.2.15q-1.3,1.9.95,3.1l1.2.75a2.78,2.78,0,0,1-1.6,3.35l-1.25-.7a16.24,16.24,0,0,0-2.4,4.5q-2.2,6-6.7,1.85-1.35-2.4,1.2-4.8t2.65-2.6v0s0,0-.05-.05l-.6-.6a.46.46,0,0,0-.3,0q-4,6.25-9.65,3.85a1,1,0,0,1-.65-1.1q-.1-3.1,7.75-5.75l-.4-.85-.65-.15q-4.35,3.05-6.75,3.1a2.41,2.41,0,0,1-2.85-2.1l.35-.9A12.33,12.33,0,0,1,242.4,200.1Z" transform="translate(-231.47 -124.19)" />
        </g>
        <g id="Layer4_0_FILL" data-name="Layer4 0 FILL">
            <path class="cls-1" d="M269.7,185.65l.4-.4-.25-.85q-11.3-2.15-19.25,6.55a10.85,10.85,0,0,1-6.7,3.25q-5.9.8-5.5,6.45.9,12.15,12.45,14.9,8.85,2,9.75-6.1a13.69,13.69,0,0,0,3.8-2.9,13.54,13.54,0,0,0,3.05-5.65,6.73,6.73,0,0,0,3.5-1.4q2.25-1.75-.35-2.6a2.26,2.26,0,0,0-.95-.1v-2.1q-.5-.9-2.05-.7a19.71,19.71,0,0,0-4.05,7.15,8.33,8.33,0,0,1-6.35,5.8q1.25,6.15-4.85,6.3a9,9,0,0,1-7-2.9q-5.9-6.4-2.05-12.6a1.72,1.72,0,0,1,1.4-.9,13.16,13.16,0,0,0,10.5-6.55,9.72,9.72,0,0,1,6-4.35A16.77,16.77,0,0,1,269.7,185.65Z" transform="translate(-231.47 -124.19)" />
            <path class="blanco" d="M270.1,184.75a1.33,1.33,0,0,0-.25-.35l.25.85-.4.4a16.77,16.77,0,0,0-8.5.3,9.72,9.72,0,0,0-6,4.35,13.16,13.16,0,0,1-10.5,6.55,1.72,1.72,0,0,0-1.4.9q-3.85,6.2,2.05,12.6a9,9,0,0,0,7,2.9q6.1-.15,4.85-6.3a8.33,8.33,0,0,0,6.35-5.8A19.71,19.71,0,0,1,267.6,194q1.55-.2,2.05.7A15.23,15.23,0,0,0,270.1,184.75Z" transform="translate(-231.47 -124.19)" />
        </g>
        <g id="Layer3_0_FILL" data-name="Layer3 0 FILL">
            <path class="cls-1" d="M282.25,126a1.85,1.85,0,0,0-.95,1.85,16.25,16.25,0,0,0,.4,2.5q-9.85-1.95-12.2,5.5a2,2,0,0,0,.2,1.5q-6.65,1.95-3.55,8a4.66,4.66,0,0,0,.9,1.1l-.9,6.15q-14.5-2.35-22.55,8.7a2.81,2.81,0,0,0-.25,2.85,7.39,7.39,0,0,0,1.65,2.45q6.6-10.35,18.6-9.35-11.15,1.85-8.3,12.75a5,5,0,0,0,2.4,3.2q5.9,3.6,11.9-.6,4.75,10.6,15.55,9.3a2.52,2.52,0,0,0,1.9-.85,14.32,14.32,0,0,0,1.25-1.65q19.4,1,29.3-14.7a7.84,7.84,0,0,0,1.15-5.55,17.18,17.18,0,0,0-2-5.85q7.75-7.4-.3-15a9.5,9.5,0,0,0-9.75-2.3,14.81,14.81,0,0,0-14.1-5.35q-1.95-9.7-10.35-4.6m.8,2.2a4,4,0,0,1,4.85-1.3,4.57,4.57,0,0,1,2.25,4.6q-.15,3.2,1,2.85a12.86,12.86,0,0,1,12.8,3,6.82,6.82,0,0,0-3.1,3.55,28.91,28.91,0,0,0-9.45-.75q-13.75,1.3-17.9,13.5l-5.35-.85q.45-1.05.95-2,3.4-6.25-1.85-8.55.8-4.25,8.85-3.35.1-.35,0-.45a7.44,7.44,0,0,0-4.65-3q3.65-5,14.8-.7.25-4.75-3.15-6.55m-13.75,32.4-.8-2.9,4.9.25q7.2,12.35,21.15,7.4a30.24,30.24,0,0,0,12.15-8.15l2-.1a14.52,14.52,0,0,0,4-1.2,12.83,12.83,0,0,0,1.15-.6q5.1,7.55-2.7,12.35A51,51,0,0,1,287,175.3a37,37,0,0,1-12.95-1.8l-2.2-3-.2-1.7a3.92,3.92,0,0,0-4.05,1.4,2,2,0,0,1-.65.5q-8.4,4.1-10-5a2.16,2.16,0,0,1,.65-2,10.2,10.2,0,0,1,11.7-3.1m9.05-.75a.58.58,0,0,1-.15-.1h0q-6.65-8.5,3.45-13.35a28.93,28.93,0,0,1,17.9-2.7q2.85,1,3.15,2.8l-.4.2a2.39,2.39,0,0,0-1.65,2.45.12.12,0,0,0,.2,0,6.18,6.18,0,0,0,3.25-.7q-.15,11.75-11.1,13.9t-14.7-2.5m30.15-13.9a1.43,1.43,0,0,0-.7-.7,2,2,0,0,0-.9,0l-4.25-3.5q6.55-7.6,12.4-3.15,5.25,7.2-2.65,12.35a8.73,8.73,0,0,1-4,1.35l-.35-4.45-.2-.5.6-1.4m-23.9,33.55a10.88,10.88,0,0,0-2.1.6q-3.45,1.25-5.2-1.6l7.3,1m-13.95-14.3a1.69,1.69,0,0,0-1.1-1.35q-6.5-3.5-8.4,2.05V166l.45-.2.35-.25,1.4-.9,6.7,2.1A1.53,1.53,0,0,0,270.65,165.15Z" transform="translate(-231.47 -124.19)" />
            <path class="blanco" d="M282.5,180.05a10.88,10.88,0,0,1,2.1-.6l-7.3-1q1.75,2.85,5.2,1.6m25.3-34.85a1.43,1.43,0,0,1,.7.7l-.6,1.4.2.5.35,4.45a8.73,8.73,0,0,0,4-1.35q7.9-5.15,2.65-12.35-5.85-4.45-12.4,3.15l4.25,3.5a2,2,0,0,1,.9,0m-29.55,14.5h.05l0,.1q3.7,4.6,14.7,2.5t11.1-13.9a6.18,6.18,0,0,1-3.25.7.12.12,0,0,1-.2,0,2.39,2.39,0,0,1,1.65-2.45l.4-.2q-.3-1.85-3.15-2.8a28.93,28.93,0,0,0-17.9,2.7q-10.1,4.85-3.45,13.35m-9.75-2,.8,2.9a10.2,10.2,0,0,0-11.7,3.1,2.16,2.16,0,0,0-.65,2q1.6,9.1,10,5a2,2,0,0,0,.65-.5,3.92,3.92,0,0,1,4.05-1.4l.2,1.7,2.2,3A37,37,0,0,0,287,175.3a51,51,0,0,0,24.15-7.7q7.8-4.8,2.7-12.35a12.83,12.83,0,0,1-1.15.6,14.52,14.52,0,0,1-4,1.2l-2,.1a30.24,30.24,0,0,1-12.15,8.15q-14,5-21.15-7.4l-4.9-.25m1.05,6.15a1.69,1.69,0,0,1,1.1,1.35,1.53,1.53,0,0,1-.6,1.6l-6.7-2.1-1.4.9-.3.35-.05-.1-.45.2v-.15q1.9-5.55,8.4-2.05m18.35-37a4,4,0,0,0-4.85,1.3q3.4,1.8,3.15,6.55-11.15-4.35-14.8.7a7.44,7.44,0,0,1,4.65,3q.1.1,0,.45-8.05-.9-8.85,3.35,5.25,2.3,1.85,8.55-.5.95-.95,2l5.35.85q4.15-12.2,17.9-13.5a28.91,28.91,0,0,1,9.45.75,6.82,6.82,0,0,1,3.1-3.55,12.86,12.86,0,0,0-12.8-3q-1.1.35-1-2.85A4.57,4.57,0,0,0,287.9,126.85Z" transform="translate(-231.47 -124.19)" />
            <path class="cls-5" d="M278.2,159.7a.58.58,0,0,0,.15.1l0-.1h-.1Z" transform="translate(-231.47 -124.19)" />
            <path class="cls-2" d="M261.65,165.9l.3-.35-.35.25Z" transform="translate(-231.47 -124.19)" />
        </g>
        <g id="Layer2_0_FILL" data-name="Layer2 0 FILL">
            <path class="cls-1" d="M292.85,152.6a2.31,2.31,0,0,0,2.3.65,1.85,1.85,0,0,0,1.25-1.05,2,2,0,0,0,.4-1.3q-.4-2-2-1.65-2.8.4-2.5,2.4A9.48,9.48,0,0,0,292.85,152.6Z" transform="translate(-231.47 -124.19)" />
        </g>
        <g id="Layer1_0_FILL" data-name="Layer1 0 FILL">
            <path class="cls-1" d="M308.25,145.3a2.31,2.31,0,0,0,2.3.65,1.85,1.85,0,0,0,1.25-1.05,2,2,0,0,0,.4-1.3q-.4-2-2-1.65-2.8.4-2.5,2.4A9.48,9.48,0,0,0,308.25,145.3Z" transform="translate(-231.47 -124.19)" />
        </g>
    </g>
</svg>